<?xml version="1.0" encoding="UTF-8"?>
<svg version="1.1" xmlns="http://www.w3.org/2000/svg" width="200" height="200">
<path d="M0 0 C13.27600588 6.80724381 23.23498607 17.98051444 30.3828125 30.9765625 C30.3828125 31.6365625 30.3828125 32.2965625 30.3828125 32.9765625 C31.32253906 32.78964844 32.26226562 32.60273437 33.23046875 32.41015625 C36.39216231 31.95144436 39.20868665 32.08003014 42.37890625 32.44921875 C52.16953985 33.95939127 52.16953985 33.95939127 61.21484375 31.171875 C63.22175053 28.54777286 64.781233 25.86331189 66.3828125 22.9765625 C67.79359769 21.26945997 69.25375311 19.60208373 70.7578125 17.9765625 C71.50933594 17.15929687 72.26085937 16.34203125 73.03515625 15.5 C73.80988281 14.66726562 74.58460937 13.83453125 75.3828125 12.9765625 C76.18847656 12.08195312 76.99414062 11.18734375 77.82421875 10.265625 C82.97895906 4.76400858 87.74755306 0.28478452 95.3828125 -1.0234375 C101.47342519 -1.004925 106.83645964 0.93454445 111.50390625 4.84765625 C123.42875664 18.35918112 125.34169215 39.13880388 125.5234375 56.328125 C125.53795456 57.45226807 125.53795456 57.45226807 125.55276489 58.59912109 C125.63266738 64.89800303 125.63266738 64.89800303 125.63330078 67.96875 C125.62437915 80.31953685 125.62437915 80.31953685 131.3828125 90.9765625 C132.7109375 93.98828125 132.7109375 93.98828125 133.6328125 96.6640625 C133.94734375 97.55480469 134.261875 98.44554688 134.5859375 99.36328125 C139.08896936 114.13057691 136.84698901 130.54420155 130.15234375 144.234375 C129.24813112 145.96404695 129.24813112 145.96404695 129.3828125 147.9765625 C130.3109375 148.5540625 131.2390625 149.1315625 132.1953125 149.7265625 C135.84958705 152.30605042 136.95316969 153.76705868 138.3828125 157.9765625 C139.36073328 164.48396127 138.11678301 169.57927786 134.3828125 174.9765625 C132.48442113 177.14813702 130.52363955 179.03035609 128.3828125 180.9765625 C133.3328125 181.6365625 138.2828125 182.2965625 143.3828125 182.9765625 C143.3828125 183.3065625 143.3828125 183.6365625 143.3828125 183.9765625 C139.68556848 184.86623463 136.10010371 185.12615515 132.30566406 185.26782227 C126.18842756 185.4969848 121.01847447 185.7328024 115.41015625 188.33984375 C110.2370727 189.96453088 103.51336416 189.7197435 98.25721741 188.47195435 C94.27409311 187.78547928 90.37609292 187.83750716 86.34155273 187.84716797 C84.9894722 187.84453949 84.9894722 187.84453949 83.6100769 187.84185791 C80.63716698 187.83746458 77.66431676 187.84036829 74.69140625 187.84375 C72.62305185 187.8430763 70.55469752 187.84210571 68.48634338 187.84085083 C64.15470627 187.83937732 59.82308979 187.84151752 55.49145508 187.84619141 C49.9374067 187.85189204 44.38340662 187.84860536 38.82936001 187.84261894 C34.5597548 187.83900704 30.29016105 187.84015476 26.0205555 187.84274673 C23.97241269 187.84341407 21.92426884 187.84259431 19.87612724 187.84026718 C17.01561597 187.83772998 14.15518316 187.84159624 11.29467773 187.84716797 C10.44729538 187.84514374 9.59991302 187.84311951 8.72685242 187.84103394 C5.09569122 187.85414789 1.8825767 188.06406896 -1.6171875 188.9765625 C-13.52399623 189.79554934 -13.52399623 189.79554934 -18.3671875 187.5390625 C-23.19694651 185.31154434 -28.39757829 185.49070792 -33.62792969 185.35571289 C-37.71723369 185.22220534 -39.86459326 184.85285962 -43.6171875 182.9765625 C-37.1821875 181.9865625 -37.1821875 181.9865625 -30.6171875 180.9765625 C-31.7103125 179.8009375 -32.8034375 178.6253125 -33.9296875 177.4140625 C-37.53301685 173.24794135 -40.53292676 169.46134598 -40.671875 163.71484375 C-40.32042214 159.09247458 -39.40838474 155.77259075 -36.6171875 151.9765625 C-35.9571875 150.9865625 -35.2971875 149.9965625 -34.6171875 148.9765625 C-35.01550781 148.3475 -35.41382813 147.7184375 -35.82421875 147.0703125 C-44.84256688 132.50052379 -46.60713654 118.32884166 -42.74609375 101.59765625 C-40.8864951 95.63278444 -38.06951722 87.42889222 -33.6171875 82.9765625 C-33.49355664 80.37706098 -33.4309269 77.80021467 -33.40625 75.19921875 C-33.37810057 73.55272581 -33.349436 71.90624162 -33.3203125 70.25976562 C-33.27966859 67.67815175 -33.24278944 65.09668709 -33.21582031 62.51489258 C-33.00288098 43.73768199 -32.57423716 18.26504606 -18.6171875 3.9765625 C-13.02430265 -1.09605399 -7.1768765 -2.80648006 0 0 Z " fill="#FDF6EC" transform="translate(52.6171875,6.0234375)"/>
<path d="M0 0 C13.27600588 6.80724381 23.23498607 17.98051444 30.3828125 30.9765625 C30.3828125 31.6365625 30.3828125 32.2965625 30.3828125 32.9765625 C31.32253906 32.78964844 32.26226562 32.60273437 33.23046875 32.41015625 C36.39216231 31.95144436 39.20868665 32.08003014 42.37890625 32.44921875 C52.16953985 33.95939127 52.16953985 33.95939127 61.21484375 31.171875 C63.22175053 28.54777286 64.781233 25.86331189 66.3828125 22.9765625 C67.79359769 21.26945997 69.25375311 19.60208373 70.7578125 17.9765625 C71.50933594 17.15929687 72.26085937 16.34203125 73.03515625 15.5 C73.80988281 14.66726562 74.58460937 13.83453125 75.3828125 12.9765625 C76.18847656 12.08195312 76.99414062 11.18734375 77.82421875 10.265625 C82.97895906 4.76400858 87.74755306 0.28478452 95.3828125 -1.0234375 C101.47342519 -1.004925 106.83645964 0.93454445 111.50390625 4.84765625 C123.42875664 18.35918112 125.34169215 39.13880388 125.5234375 56.328125 C125.53795456 57.45226807 125.53795456 57.45226807 125.55276489 58.59912109 C125.63266738 64.89800303 125.63266738 64.89800303 125.63330078 67.96875 C125.62437915 80.31953685 125.62437915 80.31953685 131.3828125 90.9765625 C132.7109375 93.98828125 132.7109375 93.98828125 133.6328125 96.6640625 C133.94734375 97.55480469 134.261875 98.44554688 134.5859375 99.36328125 C139.08896936 114.13057691 136.84698901 130.54420155 130.15234375 144.234375 C129.24813112 145.96404695 129.24813112 145.96404695 129.3828125 147.9765625 C130.3109375 148.5540625 131.2390625 149.1315625 132.1953125 149.7265625 C135.84958705 152.30605042 136.95316969 153.76705868 138.3828125 157.9765625 C139.36073328 164.48396127 138.11678301 169.57927786 134.3828125 174.9765625 C132.48442113 177.14813702 130.52363955 179.03035609 128.3828125 180.9765625 C133.3328125 181.6365625 138.2828125 182.2965625 143.3828125 182.9765625 C143.3828125 183.3065625 143.3828125 183.6365625 143.3828125 183.9765625 C139.68556848 184.86623463 136.10010371 185.12615515 132.30566406 185.26782227 C126.18842756 185.4969848 121.01847447 185.7328024 115.41015625 188.33984375 C110.2370727 189.96453088 103.51336416 189.7197435 98.25721741 188.47195435 C94.27409311 187.78547928 90.37609292 187.83750716 86.34155273 187.84716797 C84.9894722 187.84453949 84.9894722 187.84453949 83.6100769 187.84185791 C80.63716698 187.83746458 77.66431676 187.84036829 74.69140625 187.84375 C72.62305185 187.8430763 70.55469752 187.84210571 68.48634338 187.84085083 C64.15470627 187.83937732 59.82308979 187.84151752 55.49145508 187.84619141 C49.9374067 187.85189204 44.38340662 187.84860536 38.82936001 187.84261894 C34.5597548 187.83900704 30.29016105 187.84015476 26.0205555 187.84274673 C23.97241269 187.84341407 21.92426884 187.84259431 19.87612724 187.84026718 C17.01561597 187.83772998 14.15518316 187.84159624 11.29467773 187.84716797 C10.44729538 187.84514374 9.59991302 187.84311951 8.72685242 187.84103394 C5.09569122 187.85414789 1.8825767 188.06406896 -1.6171875 188.9765625 C-13.52399623 189.79554934 -13.52399623 189.79554934 -18.3671875 187.5390625 C-23.19694651 185.31154434 -28.39757829 185.49070792 -33.62792969 185.35571289 C-37.71723369 185.22220534 -39.86459326 184.85285962 -43.6171875 182.9765625 C-37.1821875 181.9865625 -37.1821875 181.9865625 -30.6171875 180.9765625 C-31.7103125 179.8009375 -32.8034375 178.6253125 -33.9296875 177.4140625 C-37.53301685 173.24794135 -40.53292676 169.46134598 -40.671875 163.71484375 C-40.32042214 159.09247458 -39.40838474 155.77259075 -36.6171875 151.9765625 C-35.9571875 150.9865625 -35.2971875 149.9965625 -34.6171875 148.9765625 C-35.01550781 148.3475 -35.41382813 147.7184375 -35.82421875 147.0703125 C-44.84256688 132.50052379 -46.60713654 118.32884166 -42.74609375 101.59765625 C-40.8864951 95.63278444 -38.06951722 87.42889222 -33.6171875 82.9765625 C-33.49355664 80.37706098 -33.4309269 77.80021467 -33.40625 75.19921875 C-33.37810057 73.55272581 -33.349436 71.90624162 -33.3203125 70.25976562 C-33.27966859 67.67815175 -33.24278944 65.09668709 -33.21582031 62.51489258 C-33.00288098 43.73768199 -32.57423716 18.26504606 -18.6171875 3.9765625 C-13.02430265 -1.09605399 -7.1768765 -2.80648006 0 0 Z M-15.05859375 8.23046875 C-25.1842142 19.57420896 -26.78608326 39.32189923 -26.6875 53.8671875 C-26.69608595 55.56381234 -26.70656251 57.26042846 -26.71875 58.95703125 C-26.73538052 61.58807664 -26.74227869 64.21714678 -26.71679688 66.84814453 C-26.63127625 77.20197097 -26.8059174 84.88204805 -32.93359375 93.57592773 C-39.64199945 103.1414372 -39.7847163 116.9088897 -37.9296875 128.0390625 C-36.46952101 134.61506411 -33.33081167 140.40612625 -29.6171875 145.9765625 C-27.73837878 145.92887847 -27.73837878 145.92887847 -25.6171875 144.9765625 C-24.22780673 143.01508376 -22.8911464 141.01489674 -21.6171875 138.9765625 C-18.99443442 137.66518596 -17.17071352 137.9862662 -14.2421875 138.1015625 C-7.67529281 138.18106486 -1.88118028 136.84243269 4.3828125 134.9765625 C4.3828125 135.6365625 4.3828125 136.2965625 4.3828125 136.9765625 C6.12460082 138.43568905 6.12460082 138.43568905 8.3828125 139.8515625 C9.61064453 140.6559375 9.61064453 140.6559375 10.86328125 141.4765625 C13.1070899 142.81241137 15.29547295 143.8392008 17.6953125 144.8515625 C21.51638397 146.70489657 23.13429669 148.87427803 24.76171875 152.765625 C26.68645781 159.61721185 25.38105028 164.7302338 22.3828125 170.9765625 C22.3828125 171.9665625 22.3828125 172.9565625 22.3828125 173.9765625 C39.04941801 177.68761582 57.68571174 177.32195657 74.3828125 173.9765625 C75.7082686 171.0767646 75.7082686 171.0767646 74.46875 168.69140625 C72.45592961 163.65935528 72.84623589 158.30208533 73.3828125 152.9765625 C76.60305046 145.91681006 82.73172341 143.30210705 89.3828125 139.9765625 C90.3934375 139.2546875 91.4040625 138.5328125 92.4453125 137.7890625 C95.5031671 135.90230115 96.87731293 135.47577685 100.3828125 135.9765625 C100.7128125 136.3065625 101.0428125 136.6365625 101.3828125 136.9765625 C103.19027035 137.05239989 104.9980995 137.12343263 106.80664062 137.16625977 C114.11166432 137.3663863 118.92454286 137.6547496 124.3828125 142.9765625 C125.20113972 141.08323716 126.01223518 139.18678517 126.8203125 137.2890625 C127.27277344 136.23332031 127.72523438 135.17757812 128.19140625 134.08984375 C132.871722 121.8596416 131.33422345 107.55800656 127.0625 95.46875 C125.62166409 92.11789645 125.62166409 92.11789645 123.87084961 90.14111328 C118.35813312 83.35160517 118.76082805 76.72658078 119.10266113 68.42312622 C119.25899036 64.50598745 119.30658887 60.5876997 119.35546875 56.66796875 C119.36645599 55.90497971 119.37744324 55.14199066 119.38876343 54.35588074 C119.54608293 38.23567792 116.93053164 20.33835013 105.7578125 8.1015625 C101.16871232 5.21212905 97.66748418 4.85532171 92.3828125 5.9765625 C89.22047114 7.48186127 86.9105357 9.57452719 84.3828125 11.9765625 C83.10083984 13.15992188 83.10083984 13.15992188 81.79296875 14.3671875 C74.85126195 21.02655279 69.06670489 28.24604467 63.3828125 35.9765625 C62.38386434 37.31068406 61.38435266 38.64438568 60.3828125 39.9765625 C59.609375 39.76 58.8359375 39.5434375 58.0390625 39.3203125 C46.56405319 36.25273575 38.80113473 37.05235803 27.3828125 39.9765625 C27.12757812 39.10644531 26.87234375 38.23632812 26.609375 37.33984375 C22.41053354 25.82646 12.86226382 14.34642506 2.3828125 7.9765625 C1.3928125 7.9765625 0.4028125 7.9765625 -0.6171875 7.9765625 C-0.6171875 7.3165625 -0.6171875 6.6565625 -0.6171875 5.9765625 C-6.34189855 4.66546088 -10.42332204 4.28031803 -15.05859375 8.23046875 Z " fill="#8A4102" transform="translate(52.6171875,6.0234375)"/>
<path d="M0 0 C0 0.66 0 1.32 0 2 C0.73734375 2.09667969 1.4746875 2.19335938 2.234375 2.29296875 C12.22261593 4.84645972 19.5847629 17.49900038 24.67578125 25.69921875 C28 31.51426056 28 31.51426056 28 34 C28.66 33.67 29.32 33.34 30 33 C32.3329866 32.95977609 34.66706666 32.95679753 37 33 C36.52247145 42.46823858 35.17776149 51.60539167 33.3984375 60.89648438 C33.02053618 62.89158107 32.66584164 64.89103256 32.3125 66.890625 C27.6653495 92.1331016 27.6653495 92.1331016 20 98 C16.88671875 98.48828125 16.88671875 98.48828125 13.6875 98.3125 C12.61886719 98.26738281 11.55023438 98.22226563 10.44921875 98.17578125 C9.64097656 98.11777344 8.83273438 98.05976562 8 98 C8.05800781 98.76828125 8.11601563 99.5365625 8.17578125 100.328125 C8 103 8 103 5.1875 105.75 C1.11223588 108.62665702 -1.94117032 109.3855758 -6.93359375 109.3671875 C-10.53053658 108.7280332 -12.40227083 106.47402778 -15 104 C-15.66 104 -16.32 104 -17 104 C-23.29718772 112.21372311 -23.37413981 122.11993755 -23 132 C-23 135.61537605 -23.89229241 137.11165997 -26 140 C-26.99 140 -27.98 140 -29 140 C-37.3270401 129.27867101 -39.16741266 116.70684182 -37.7265625 103.4921875 C-36.41013422 95.76748568 -33.77978649 87.57924319 -28.94311523 81.3515625 C-26.51198197 77.15824707 -26.44540066 74.25900094 -26.49609375 69.515625 C-26.48667252 68.70115906 -26.47725128 67.88669312 -26.46754456 67.04754639 C-26.43901217 64.44810853 -26.43580662 61.84958098 -26.4375 59.25 C-26.37587576 16.18697953 -26.37587576 16.18697953 -14 2 C-9.56456069 -1.94261272 -5.46847487 -0.98885275 0 0 Z " fill="#FCB477" transform="translate(52,12)"/>
<path d="M0 0 C6.5207036 3.3282758 9.49346486 8.96480817 11.97265625 15.609375 C15.35526092 26.77325656 17.31024974 38.38457473 16.8515625 50.05078125 C16.81455631 51.56961751 16.7794599 53.08850129 16.74609375 54.60742188 C16.69079076 56.95828827 16.62525036 59.30652181 16.52685547 61.65600586 C16.14787513 71.10968028 16.15681175 77.83172683 22.24389648 85.62963867 C29.29927635 95.15288115 29.21025727 108.6707154 28 120 C26.89311995 126.28427043 25.09659786 132.03478253 21 137 C18.83961702 134.88189458 17.1650898 133.13617264 16.71826172 130.06103516 C16.71464587 127.80216198 16.80698197 125.56756149 16.9375 123.3125 C17.18913441 115.04605966 16.70595648 108.05893471 12 101 C11.38125 101.804375 10.7625 102.60875 10.125 103.4375 C8 106 8 106 6 107 C3.7927077 107.07092842 1.58332548 107.08415025 -0.625 107.0625 C-1.81351563 107.05347656 -3.00203125 107.04445313 -4.2265625 107.03515625 C-5.59941406 107.01775391 -5.59941406 107.01775391 -7 107 C-7 106.34 -7 105.68 -7 105 C-8.65 104.34 -10.3 103.68 -12 103 C-12 101.02 -12 99.04 -12 97 C-12.99 97.33 -13.98 97.66 -15 98 C-16.97564353 98.14449151 -18.95679761 98.22061999 -20.9375 98.25 C-22.49791016 98.28867188 -22.49791016 98.28867188 -24.08984375 98.328125 C-27.33636464 97.96207432 -28.69978787 97.28358409 -31 95 C-31 94.34 -31 93.68 -31 93 C-31.66 93 -32.32 93 -33 93 C-40.27157148 77.8708696 -44.52361811 61.58534195 -48.4375 45.3125 C-48.60137207 44.63662842 -48.76524414 43.96075684 -48.93408203 43.2644043 C-49.73481957 39.78097231 -50.1708503 36.57418827 -50 33 C-48.79214844 33.29519531 -47.58429688 33.59039062 -46.33984375 33.89453125 C-44.14021302 34.23879762 -44.14021302 34.23879762 -42 34 C-39.65050895 31.86148366 -38.27292322 30.26585537 -36.5625 27.6875 C-35.62402738 26.38590061 -34.68259008 25.08643395 -33.73828125 23.7890625 C-33.2788916 23.14356445 -32.81950195 22.49806641 -32.34619141 21.83300781 C-29.23865908 17.60171425 -25.59644513 13.8144115 -22 10 C-21.360625 9.319375 -20.72125 8.63875 -20.0625 7.9375 C-14.03053673 1.697538 -9.01642532 -1.84176981 0 0 Z " fill="#FCB577" transform="translate(155,12)"/>
<path d="M0 0 C1.68996005 1.30368347 3.35135455 2.64444707 5 4 C7.53881328 5.25514365 10.0994397 6.42635136 12.6953125 7.55859375 C15.58362073 9.36501025 16.59688246 10.90777919 18 14 C18.95217678 19.75273472 18.88431339 25.3313747 15.875 30.4375 C10.45261918 37.75317022 3.42749205 41.19083598 -5 44 C-14.01416435 44.82053512 -21.59153009 44.56276114 -29 39 C-33.99900848 34.27029837 -38.52918722 29.63198432 -39.4375 22.625 C-38.90366223 18.20177274 -37.23837893 15.8823268 -34 13 C-33.01 12.360625 -32.02 11.72125 -31 11.0625 C-28.16558087 9.11383685 -27.29527377 8.10766293 -25.5625 5.3125 C-23.60734738 2.39845087 -23.28045017 2.07937269 -19.6875 1.0625 C-17.03947889 1.01761829 -14.39787229 0.99514152 -11.75 1 C-7.57149321 1 -4.17534546 -0.49706494 0 0 Z " fill="#FCF3E9" transform="translate(56,146)"/>
<path d="M0 0 C2.99422094 0.40853792 5.86982359 0.19154167 8.88671875 0.05859375 C14.85332452 0.01080629 14.85332452 0.01080629 18.26171875 2.49609375 C18.92171875 3.42421875 19.58171875 4.35234375 20.26171875 5.30859375 C22.89733143 8.07936606 25.22948934 10.28773943 28.44921875 12.37109375 C31.79785564 14.6779325 32.89336095 16.4243019 33.66796875 20.38671875 C33.90804325 25.94844468 32.76495132 29.19204868 29.17578125 33.453125 C22.65970577 39.76972878 15.64892856 43.59063638 6.51171875 43.62109375 C-3.21529457 43.44848495 -10.66058287 41.20125427 -17.73828125 34.30859375 C-22.56977326 28.08639933 -24.62821586 22.28622186 -23.73828125 14.30859375 C-21.01975463 8.19190886 -16.38451267 6.04777227 -10.6171875 3.296875 C-8.59905097 2.32912871 -8.59905097 2.32912871 -6.67578125 0.49609375 C-4.20406142 -1.01883131 -2.75590133 -0.57987512 0 0 Z " fill="#FCF3E9" transform="translate(152.73828125,146.69140625)"/>
<path d="M0 0 C2.55109708 1.05562638 3.81984345 1.72976517 5.375 4.0625 C6.90746325 6.24073161 6.90746325 6.24073161 9.75 6.875 C13.04240615 7.17935616 13.04240615 7.17935616 16.22265625 6.01953125 C20.2178256 4.94120736 23.5594005 4.76658585 27.6875 4.8125 C29.61142578 4.82216797 29.61142578 4.82216797 31.57421875 4.83203125 C34.32059257 4.96668812 36.38685228 5.31877208 39 6 C40.99757002 6.11670586 42.99906276 6.17499414 45 6.1875 C46.03125 6.20167969 47.0625 6.21585938 48.125 6.23046875 C51.0003969 5.99996818 52.60927755 5.57370951 55 4 C56.26804566 1.9664052 56.26804566 1.9664052 57 0 C58.32 0.33 59.64 0.66 61 1 C60.64722322 4.17499098 59.97528315 5.02239841 57.54296875 7.2265625 C54.55786664 10.48220381 54.1571303 12.37266651 53.5 16.6875 C51.77893644 25.81869834 49.15881856 32.95465685 41.74609375 38.84375 C35.97645954 42.66435789 30.81556143 42.68418763 24 42 C17.35429807 40.22930708 12.7148971 35.63834636 9 30 C6.49782215 24.85916188 4.93732542 19.89637947 4.5625 14.1875 C4.33776354 10.78608337 3.67549221 9.20858736 1.375 6.6875 C0.59125 5.800625 -0.1925 4.91375 -1 4 C-0.8125 1.625 -0.8125 1.625 0 0 Z " fill="#723704" transform="translate(71,125)"/>
<path d="M0 0 C7.67371295 2.54283566 14.02424419 9.76461095 18.82421875 16.0546875 C19.65234375 17.87890625 19.65234375 17.87890625 19.5859375 19.82421875 C16.0291917 27.65203588 5.1111923 34.00606304 -1.6628418 39.21118164 C-3.92800642 40.95364076 -6.12533142 42.65219343 -8.12890625 44.6953125 C-9.34765625 45.87890625 -9.34765625 45.87890625 -11.34765625 45.87890625 C-14.81592866 35.47408903 -13.83993883 17.30598667 -9.20703125 7.453125 C-4.66989367 -0.24087638 -4.66989367 -0.24087638 0 0 Z " fill="#FFF7ED" transform="translate(49.34765625,29.12109375)"/>
<path d="M0 0 C2.78582755 1.0555854 3.54665902 1.86682586 5.05859375 4.3984375 C5.45433594 5.0275 5.85007813 5.6565625 6.2578125 6.3046875 C9.50919288 13.87983338 9.6583271 21.51229587 9.55859375 29.6484375 C9.55794922 30.66292969 9.55730469 31.67742188 9.55664062 32.72265625 C9.52974273 37.27138877 9.37331937 41.44565654 8.37109375 45.8984375 C5.03981417 45.32283844 3.56153087 44.38761611 1.30859375 41.8984375 C-3.28129905 37.09092047 -8.44953288 33.04817641 -13.62890625 28.8984375 C-21.35394793 22.70614218 -21.35394793 22.70614218 -21.99609375 18.484375 C-21.14438365 12.48616134 -14.42051123 8.36765928 -9.98046875 4.7265625 C-3.50435634 -0.13538375 -3.50435634 -0.13538375 0 0 Z " fill="#FFF7ED" transform="translate(152.62890625,30.1015625)"/>
<path d="M0 0 C3.0625 2.4375 3.0625 2.4375 5 5 C4.8125 7.8125 4.8125 7.8125 4 10 C3.34 10 2.68 10 2 10 C1.9071875 10.86625 1.9071875 10.86625 1.8125 11.75 C0.6405023 14.99553208 -1.15661295 16.10440864 -4 18 C-8.86772832 20.21260378 -13.73309357 20.85698816 -19 20 C-24.86601576 17.64518364 -29.13884351 13.61874171 -32 8 C-32.8125 5.375 -32.8125 5.375 -32 3 C-22.76565176 -5.0046486 -10.21257915 -6.82315483 0 0 Z " fill="#FA8C89" transform="translate(114,144)"/>
<path d="M0 0 C1.9435008 0.33995229 3.88890581 0.66917231 5.8359375 0.98828125 C6.81143555 1.14893066 7.78693359 1.30958008 8.79199219 1.47509766 C20.3018872 3.0647442 32.10337387 2.16858258 43.5234375 0.3125 C49.22083909 -0.47528886 52.66602474 -0.68875286 57.4375 2.75 C58.19546875 3.28367188 58.9534375 3.81734375 59.734375 4.3671875 C61.6875 5.875 61.6875 5.875 63.6875 7.875 C34.64943651 9.17743491 5.72560128 9.30578575 -23.3125 7.875 C-22.73717529 7.44719238 -22.16185059 7.01938477 -21.5690918 6.57861328 C-20.12894708 5.49137647 -18.70839973 4.37733187 -17.31567383 3.22998047 C-11.17850522 -1.46402623 -7.38374583 -1.59015118 0 0 Z " fill="#000000" transform="translate(81.3125,185.125)"/>
<path d="M0 0 C1.38671875 1.23828125 1.38671875 1.23828125 3.01171875 4.05078125 C3.19061318 7.62866993 2.13445077 8.89917111 -0.11328125 11.67578125 C-5.59238958 16.20200118 -10.68001153 17.64371601 -17.67578125 17.3984375 C-21.15217252 16.87580435 -22.8213032 15.79562011 -24.98828125 13.05078125 C-25.70946347 9.28460742 -25.34695509 7.64397259 -23.36328125 4.36328125 C-17.44318174 -1.40102616 -7.80112915 -3.72431116 0 0 Z " fill="#FF918F" transform="translate(58.98828125,167.94921875)"/>
<path d="M0 0 C5.24549112 1.61801219 9.18039485 4.18317453 12 9 C12.25 11.8125 12.25 11.8125 12 14 C7.17292061 17.35796827 3.49405438 18.75378648 -2.4296875 18.52734375 C-8.19803243 17.34386873 -12.78202787 13.82695819 -16 9 C-15.85998697 5.6396872 -15.74392467 3.71531218 -13.2734375 1.33984375 C-9.11058076 -1.11352371 -4.6738224 -0.58180362 0 0 Z " fill="#FF908F" transform="translate(158,167)"/>
<path d="M0 0 C2.64552856 1.45889342 3.46085008 1.9755607 4.8125 4.75 C4.56498631 8.13268704 3.77257186 9.67999255 1.625 12.3125 C-2.43315166 14.92775329 -5.56644587 16.01374748 -10.375 15.3125 C-14.12706966 13.25254019 -17.38225852 11.18076288 -19.375 7.3125 C-19.5 4.8125 -19.5 4.8125 -18.375 2.3125 C-12.26362753 -2.20991563 -7.13012017 -3.1138671 0 0 Z " fill="#733A08" transform="translate(107.375,109.6875)"/>
<path d="M0 0 C1.28197266 -0.03867188 1.28197266 -0.03867188 2.58984375 -0.078125 C5.59339363 0.32045034 6.91869104 1.1305525 9.0625 3.25 C9.625 6.6875 9.625 6.6875 9.0625 10.25 C5.41281894 13.99832109 2.43018441 15.11547366 -2.75 15.625 C-5.98580697 15.58313189 -7.85159255 15.02189306 -10.4375 13.0625 C-12.9375 10.25 -12.9375 10.25 -13.625 7.6875 C-12.65323999 4.24216904 -10.88575862 3.16979631 -7.9375 1.25 C-5.04829306 0.28693102 -3.01502119 0.0544064 0 0 Z " fill="#FF908E" transform="translate(49.9375,105.75)"/>
<path d="M0 0 C1.60294922 0.04060547 1.60294922 0.04060547 3.23828125 0.08203125 C4.04652344 0.11683594 4.85476562 0.15164062 5.6875 0.1875 C5.6875 0.8475 5.6875 1.5075 5.6875 2.1875 C6.6465625 2.4040625 6.6465625 2.4040625 7.625 2.625 C9.6875 3.1875 9.6875 3.1875 10.6875 4.1875 C11 7.5625 11 7.5625 10.6875 11.1875 C8.3159762 13.73297421 6.94188338 14.16445803 3.453125 14.48046875 C2.29296875 14.44566406 1.1328125 14.41085938 -0.0625 14.375 C-1.81820312 14.33439453 -1.81820312 14.33439453 -3.609375 14.29296875 C-4.50140625 14.25816406 -5.3934375 14.22335938 -6.3125 14.1875 C-6.3125 13.5275 -6.3125 12.8675 -6.3125 12.1875 C-8.7875 11.1975 -8.7875 11.1975 -11.3125 10.1875 C-11.625 6.875 -11.625 6.875 -11.3125 3.1875 C-7.5919921 0.17826567 -4.69387378 -0.15474309 0 0 Z " fill="#FF908E" transform="translate(154.3125,104.8125)"/>
<path d="M0 0 C3.1317635 2.28357755 4.67913747 3.71654988 5.625 7.5 C4.67913747 11.28345012 3.1317635 12.71642245 0 15 C-2.85875988 15.77232626 -5.1469758 15.80778396 -8 15 C-10.66310427 13.20209781 -11.36397742 11.94484064 -13 9 C-12.49855133 5.80326471 -11.51917007 3.86528345 -9.875 1.125 C-6.71953865 -0.76827681 -3.49923098 -0.72843913 0 0 Z " fill="#64350E" transform="translate(72,95)"/>
<path d="M0 0 C2.4375 1.5 2.4375 1.5 4 4 C4.32111824 6.75845833 4.18630402 9.20543968 4 12 C3.34 12 2.68 12 2 12 C2 12.66 2 13.32 2 14 C-1.02789419 14.66626866 -3.89424952 15.10888274 -7 15 C-10.125 13 -10.125 13 -12 10 C-12.06584389 6.18105459 -11.85572029 4.02028188 -9.375 1.0625 C-6.02317947 -0.43699866 -3.63019782 -0.45377473 0 0 Z " fill="#65360E" transform="translate(135,95)"/>
<path d="M0 0 C0 0.66 0 1.32 0 2 C-6 1 -6 1 -8.875 0.4375 C-15.89093704 -0.54473119 -21.25420199 0.20112053 -28 2 C-29.32 2 -30.64 2 -32 2 C-32 1.01 -32 0.02 -32 -1 C-21.04993866 -5.1526192 -10.37484205 -6.00507653 0 0 Z " fill="#EEE2DC" transform="translate(116,104)"/>
<path d="M0 0 C0.78503906 0.02578125 1.57007813 0.0515625 2.37890625 0.078125 C6.23181091 0.34342673 10.04350197 0.76346057 13.875 1.25 C13.875 1.58 13.875 1.91 13.875 2.25 C9.4371439 3.36165232 5.10543614 3.36527763 0.5625 3.3125 C-0.17806641 3.30798828 -0.91863281 3.30347656 -1.68164062 3.29882812 C-3.49612899 3.28712175 -5.31057534 3.26918898 -7.125 3.25 C-4.83008288 0.5076462 -3.56429403 -0.12775247 0 0 Z " fill="#020100" transform="translate(182.125,187.75)"/>
<path d="M0 0 C1.2065625 0.0309375 1.2065625 0.0309375 2.4375 0.0625 C3.0625 2.4375 3.0625 2.4375 3.4375 5.0625 C2.7775 5.7225 2.1175 6.3825 1.4375 7.0625 C0.1175 7.0625 -1.2025 7.0625 -2.5625 7.0625 C-2.94383299 5.0710944 -3.27575582 3.06970923 -3.5625 1.0625 C-2.5625 0.0625 -2.5625 0.0625 0 0 Z " fill="#FF9493" transform="translate(42.5625,156.9375)"/>
<path d="M0 0 C1.65 0.33 3.3 0.66 5 1 C5.33 2.65 5.66 4.3 6 6 C4.02 6.33 2.04 6.66 0 7 C-1.125 2.25 -1.125 2.25 0 0 Z " fill="#FF9492" transform="translate(174,164)"/>
<path d="M0 0 C1.65 0.33 3.3 0.66 5 1 C5.33 2.65 5.66 4.3 6 6 C4.02 6.33 2.04 6.66 0 7 C-1.125 2.25 -1.125 2.25 0 0 Z " fill="#FF9492" transform="translate(25,164)"/>
<path d="M0 0 C-0.33 1.98 -0.66 3.96 -1 6 C-2.65 5.67 -4.3 5.34 -6 5 C-6.33 3.35 -6.66 1.7 -7 0 C-4.3333581 -1.33332095 -2.83319697 -0.67102033 0 0 Z " fill="#FF9492" transform="translate(164,158)"/>
<path d="M0 0 C1.67542976 0.28604898 3.34385343 0.61781233 5 1 C5 2.65 5 4.3 5 6 C2.625 6.625 2.625 6.625 0 7 C-0.66 6.34 -1.32 5.68 -2 5 C-1.46428571 1.46428571 -1.46428571 1.46428571 0 0 Z " fill="#FF9392" transform="translate(55,155)"/>
<path d="M0 0 C1.6953125 1.515625 1.6953125 1.515625 3 3 C0.58303128 3.05411124 -1.83271787 3.09372278 -4.25 3.125 C-4.93191406 3.14175781 -5.61382812 3.15851563 -6.31640625 3.17578125 C-10.0608235 3.21213482 -12.82352727 3.07944349 -16 1 C-4.98466258 -0.39877301 -4.98466258 -0.39877301 0 0 Z " fill="#000000" transform="translate(25,188)"/>
<path d="M0 0 C2.125 0.375 2.125 0.375 4 1 C5.125 4.75 5.125 4.75 4 7 C2.35 6.67 0.7 6.34 -1 6 C-1.625 4.125 -1.625 4.125 -2 2 C-1.34 1.34 -0.68 0.68 0 0 Z " fill="#FF8F8E" transform="translate(145,155)"/>
</svg>
